<svg width="14" height="9" viewBox="0 0 14 9" fill="none" xmlns="http://www.w3.org/2000/svg">
<path d="M7 8.66659C6.82453 8.6676 6.65058 8.63397 6.48813 8.56762C6.32568 8.50126 6.17792 8.4035 6.05334 8.27992L0.720003 2.94659C0.595685 2.82227 0.497071 2.67468 0.42979 2.51225C0.36251 2.34983 0.327881 2.17573 0.327881 1.99992C0.327881 1.82411 0.36251 1.65002 0.42979 1.48759C0.497071 1.32516 0.595685 1.17757 0.720003 1.05325C0.844321 0.928936 0.991908 0.830322 1.15434 0.763041C1.31677 0.695761 1.49086 0.661133 1.66667 0.661133C1.84248 0.661133 2.01657 0.695761 2.179 0.763041C2.34143 0.830322 2.48902 0.928936 2.61334 1.05325L7 5.46659L11.4 1.22659C11.5227 1.0902 11.6721 0.98059 11.8391 0.904608C12.006 0.828627 12.1869 0.787911 12.3703 0.785005C12.5537 0.782099 12.7357 0.817066 12.905 0.887721C13.0743 0.958375 13.2271 1.0632 13.354 1.19563C13.481 1.32806 13.5792 1.48526 13.6426 1.65738C13.706 1.82951 13.7332 2.01286 13.7225 2.19598C13.7118 2.37909 13.6634 2.55803 13.5804 2.7216C13.4974 2.88517 13.3815 3.02984 13.24 3.14659L7.90667 8.29326C7.66284 8.52834 7.33867 8.66182 7 8.66659Z" fill="#0097CC"/>
</svg>
