<svg width="22" height="22" viewBox="0 0 22 22" fill="none" xmlns="http://www.w3.org/2000/svg">
<path d="M21.6668 4.10661C21.6733 3.61142 21.5799 3.12 21.392 2.66179C21.2042 2.20357 20.9257 1.78799 20.5734 1.43994C19.856 0.752158 18.9006 0.368164 17.9068 0.368164C16.9129 0.368164 15.9575 0.752158 15.2401 1.43994L6.44011 10.2399H6.14677C4.63671 10.2805 3.19987 10.8994 2.13295 11.9688C1.06603 13.0382 0.45049 14.4764 0.41344 15.9866L0.33344 20.3333C0.328856 20.5132 0.360751 20.6922 0.427205 20.8595C0.493659 21.0268 0.593294 21.1789 0.720107 21.3066C0.979678 21.5405 1.31735 21.669 1.66677 21.6666L6.01344 21.5866C7.5236 21.5496 8.96187 20.934 10.0313 19.8671C11.1007 18.8002 11.7195 17.3633 11.7601 15.8533V15.5466L20.5734 6.74661C20.9237 6.4026 21.2011 5.99152 21.3889 5.53793C21.5768 5.08434 21.6713 4.59754 21.6668 4.10661ZM6.00011 18.9199L3.00011 18.9999V16.0266C3.0141 15.1872 3.35741 14.3869 3.95602 13.7983C4.55462 13.2096 5.36057 12.8798 6.20011 12.8799C6.58109 12.8799 6.95827 12.9558 7.30959 13.1031C7.66092 13.2505 7.97933 13.4665 8.24624 13.7383C8.51314 14.0102 8.72318 14.3325 8.86406 14.6865C9.00495 15.0405 9.07386 15.419 9.06677 15.7999C9.04716 16.6121 8.71936 17.3864 8.14987 17.9658C7.58038 18.5452 6.81183 18.8863 6.00011 18.9199ZM18.6934 4.85327L10.8668 12.6799C10.662 12.3751 10.4299 12.0895 10.1734 11.8266C9.91403 11.5663 9.62802 11.3339 9.32011 11.1333L17.1468 3.31994C17.3551 3.12106 17.6321 3.0101 17.9201 3.0101C18.2081 3.0101 18.4851 3.12106 18.6934 3.31994C18.7948 3.42375 18.8741 3.5469 18.9268 3.68206C18.9795 3.81722 19.0044 3.96161 19.0001 4.10661C19.0006 4.24511 18.9738 4.38236 18.9211 4.51048C18.8685 4.6386 18.7911 4.75509 18.6934 4.85327Z" fill="white"/>
</svg>
